<svg width="24" height="25" viewBox="0 0 24 25" fill="none" xmlns="http://www.w3.org/2000/svg">
<path d="M13.07 10.4901C13.6774 9.64139 14.0041 8.62384 14.0041 7.58013C14.0041 6.53642 13.6774 5.51887 13.07 4.67013C13.6385 4.28209 14.3117 4.0763 15 4.08013C15.9283 4.08013 16.8185 4.44888 17.4749 5.10526C18.1313 5.76163 18.5 6.65187 18.5 7.58013C18.5 8.50839 18.1313 9.39863 17.4749 10.055C16.8185 10.7114 15.9283 11.0801 15 11.0801C14.3117 11.084 13.6385 10.8782 13.07 10.4901ZM5.5 7.58013C5.5 6.8879 5.70527 6.21121 6.08986 5.63564C6.47444 5.06006 7.02107 4.61146 7.66061 4.34655C8.30015 4.08165 9.00388 4.01233 9.68282 4.14738C10.3617 4.28243 10.9854 4.61577 11.4749 5.10526C11.9644 5.59474 12.2977 6.21838 12.4327 6.89731C12.5678 7.57625 12.4985 8.27998 12.2336 8.91952C11.9687 9.55906 11.5201 10.1057 10.9445 10.4903C10.3689 10.8749 9.69223 11.0801 9 11.0801C8.07174 11.0801 7.1815 10.7114 6.52513 10.055C5.86875 9.39863 5.5 8.50839 5.5 7.58013ZM7.5 7.58013C7.5 7.8768 7.58797 8.16681 7.7528 8.41349C7.91762 8.66016 8.15189 8.85242 8.42597 8.96595C8.70006 9.07948 9.00166 9.10919 9.29264 9.05131C9.58361 8.99343 9.85088 8.85057 10.0607 8.64079C10.2704 8.43101 10.4133 8.16374 10.4712 7.87277C10.5291 7.58179 10.4994 7.28019 10.3858 7.00611C10.2723 6.73202 10.08 6.49775 9.83335 6.33293C9.58668 6.1681 9.29667 6.08013 9 6.08013C8.60218 6.08013 8.22064 6.23817 7.93934 6.51947C7.65804 6.80078 7.5 7.18231 7.5 7.58013ZM16 17.0801V19.0801H2V17.0801C2 17.0801 2 13.0801 9 13.0801C16 13.0801 16 17.0801 16 17.0801ZM14 17.0801C13.86 16.3001 12.67 15.0801 9 15.0801C5.33 15.0801 4.07 16.3901 4 17.0801M15.95 13.0801C16.5629 13.5569 17.064 14.162 17.4182 14.853C17.7723 15.544 17.9709 16.3042 18 17.0801V19.0801H22V17.0801C22 17.0801 22 13.4501 15.94 13.0801H15.95Z" fill="#4E5860"/>
</svg>
