<svg width="24" height="25" viewBox="0 0 24 25" fill="none" xmlns="http://www.w3.org/2000/svg">
<g id="lets-icons:video-fill">
<path id="Vector" fill-rule="evenodd" clip-rule="evenodd" d="M12 21.0801C13.1819 21.0801 14.3522 20.8473 15.4442 20.395C16.5361 19.9427 17.5282 19.2798 18.364 18.444C19.1997 17.6083 19.8626 16.6162 20.3149 15.5242C20.7672 14.4323 21 13.262 21 12.0801C21 10.8982 20.7672 9.72786 20.3149 8.63593C19.8626 7.544 19.1997 6.55184 18.364 5.71612C17.5282 4.88039 16.5361 4.21745 15.4442 3.76516C14.3522 3.31287 13.1819 3.08008 12 3.08008C9.61305 3.08008 7.32387 4.02829 5.63604 5.71612C3.94821 7.40394 3 9.69313 3 12.0801C3 14.467 3.94821 16.7562 5.63604 18.444C7.32387 20.1319 9.61305 21.0801 12 21.0801ZM10.783 8.07008L16.427 11.2061C16.5828 11.2927 16.7126 11.4194 16.803 11.5731C16.8934 11.7268 16.9411 11.9018 16.9411 12.0801C16.9411 12.2584 16.8934 12.4334 16.803 12.5871C16.7126 12.7407 16.5828 12.8674 16.427 12.9541L10.783 16.0901C10.6002 16.1917 10.3941 16.2437 10.1851 16.2411C9.97599 16.2385 9.77123 16.1813 9.59107 16.0752C9.4109 15.9691 9.26159 15.8178 9.15791 15.6362C9.05424 15.4547 8.9998 15.2492 9 15.0401V9.12008C8.9998 8.91099 9.05424 8.70549 9.15791 8.52392C9.26159 8.34235 9.4109 8.19102 9.59107 8.08492C9.77123 7.97882 9.97599 7.92164 10.1851 7.91903C10.3941 7.91643 10.6002 7.9685 10.783 8.07008Z" fill="#0057A5"/>
</g>
</svg>
