<svg width="24" height="23" viewBox="0 0 24 23" fill="none" xmlns="http://www.w3.org/2000/svg">
<g clip-path="url(#clip0_564_536)">
<path d="M12 0.5C12.0826 0.5 12.1571 0.527428 12.2107 0.56954C12.2107 0.569566 12.2108 0.569593 12.2108 0.569619L23.5 9.47196V19.872C23.5 20.3109 23.3109 20.7412 22.9585 21.0654C22.6048 21.3908 22.1167 21.58 21.6 21.58H15.2C15.1076 21.58 15.0265 21.5459 14.9728 21.4965C14.9206 21.4484 14.9 21.3925 14.9 21.344V16.928C14.9 16.1958 14.5834 15.5028 14.0356 14.9988C13.4891 14.4961 12.7563 14.22 12 14.22C11.2437 14.22 10.5109 14.4961 9.96441 14.9988C9.41658 15.5028 9.1 16.1958 9.1 16.928V21.344C9.1 21.3925 9.07943 21.4484 9.02716 21.4965C8.97348 21.5459 8.8924 21.58 8.8 21.58H2.4C1.88326 21.58 1.39521 21.3908 1.04147 21.0654C0.689137 20.7412 0.5 20.3109 0.5 19.872V9.47196L11.7892 0.569619C11.7892 0.569593 11.7893 0.569566 11.7893 0.56954C11.8429 0.527428 11.9174 0.5 12 0.5Z" fill="#17202A" stroke="#17202A"/>
</g>
<defs>
<clipPath id="clip0_564_536">
<rect width="24" height="22.08" fill="white"/>
</clipPath>
</defs>
</svg>
