<svg width="24" height="23" viewBox="0 0 24 23" fill="none" xmlns="http://www.w3.org/2000/svg">
<g id="teenyicons:home-outline" clip-path="url(#clip0_715_9028)">
<path id="Vector" d="M12 0.76005L12.52 0.18245C12.3751 0.0647037 12.1907 0 12 0C11.8093 0 11.6249 0.0647037 11.48 0.18245L12 0.76005ZM0.8 9.88005L0.28 9.30245L0 9.53045V9.88005H0.8ZM8.8 22.04V22.8C9.01217 22.8 9.21566 22.72 9.36569 22.5775C9.51571 22.4349 9.6 22.2416 9.6 22.04H8.8ZM15.2 22.04H14.4C14.4 22.2416 14.4843 22.4349 14.6343 22.5775C14.7843 22.72 14.9878 22.8 15.2 22.8V22.04ZM23.2 9.88005H24V9.53045L23.72 9.30245L23.2 9.88005ZM2.4 22.8H8.8V21.28H2.4V22.8ZM23.72 9.30245L12.52 0.18245L11.48 1.33765L22.68 10.4577L23.72 9.30245ZM11.48 0.18245L0.28 9.30245L1.32 10.4577L12.52 1.33765L11.48 0.18245ZM9.6 22.04V17.48H8V22.04H9.6ZM14.4 17.48V22.04H16V17.48H14.4ZM15.2 22.8H21.6V21.28H15.2V22.8ZM24 20.52V9.88005H22.4V20.52H24ZM0 9.88005V20.52H1.6V9.88005H0ZM12 15.2C12.6365 15.2 13.247 15.4403 13.6971 15.8678C14.1471 16.2954 14.4 16.8754 14.4 17.48H16C16 16.4722 15.5786 15.5057 14.8284 14.793C14.0783 14.0804 13.0609 13.68 12 13.68V15.2ZM12 13.68C10.9391 13.68 9.92172 14.0804 9.17157 14.793C8.42143 15.5057 8 16.4722 8 17.48H9.6C9.6 16.8754 9.85286 16.2954 10.3029 15.8678C10.753 15.4403 11.3635 15.2 12 15.2V13.68ZM21.6 22.8C22.2365 22.8 22.847 22.5598 23.2971 22.1323C23.7471 21.7047 24 21.1247 24 20.52H22.4C22.4 20.7216 22.3157 20.9149 22.1657 21.0575C22.0157 21.2 21.8122 21.28 21.6 21.28V22.8ZM2.4 21.28C2.18783 21.28 1.98434 21.2 1.83431 21.0575C1.68429 20.9149 1.6 20.7216 1.6 20.52H0C0 21.1247 0.252856 21.7047 0.702944 22.1323C1.15303 22.5598 1.76348 22.8 2.4 22.8V21.28Z" fill="#4E5860"/>
</g>
<defs>
<clipPath id="clip0_715_9028">
<rect width="24" height="22.8" fill="white"/>
</clipPath>
</defs>
</svg>
