<svg width="24" height="22" viewBox="0 0 24 22" fill="none" xmlns="http://www.w3.org/2000/svg">
<path d="M2.56238 19.72V10.3561L12.0001 2.67108L21.4378 10.3561V19.72C21.4378 19.8898 21.3669 20.0532 21.2396 20.1741C21.1123 20.295 20.9391 20.3634 20.758 20.3634H15.6992V16.9467C15.6992 16.0132 15.3088 15.1184 14.6149 14.4592C13.921 13.8 12.9804 13.43 12.0001 13.43C11.0198 13.43 10.0792 13.8 9.38535 14.4592C8.69137 15.1184 8.30098 16.0132 8.30098 16.9467V20.3634H3.24221C3.0611 20.3634 2.8879 20.295 2.76058 20.1741C2.63335 20.0532 2.56238 19.8898 2.56238 19.72ZM12.5061 1.12767L12.506 1.12764C12.3647 1.01282 12.1853 0.95 12.0001 0.95C11.8149 0.95 11.6355 1.01282 11.4942 1.12764L11.4941 1.12767L1.2766 9.44767L1.02116 9.65567L1.00273 9.67068V9.69445V10.0134V19.72C1.00273 20.2858 1.23934 20.8278 1.65958 21.2271C2.07974 21.6262 2.64907 21.85 3.24221 21.85H9.08081C9.28682 21.85 9.48489 21.7723 9.63131 21.6332C9.77781 21.494 9.86063 21.3047 9.86063 21.1067V16.9467C9.86063 16.4092 10.0854 15.8931 10.4864 15.5122C10.8874 15.1312 11.4319 14.9167 12.0001 14.9167C12.5683 14.9167 13.1128 15.1312 13.5139 15.5122C13.9148 15.8931 14.1396 16.4092 14.1396 16.9467V21.1067C14.1396 21.3047 14.2224 21.494 14.3689 21.6332C14.5153 21.7723 14.7134 21.85 14.9194 21.85H20.758C21.3511 21.85 21.9205 21.6262 22.3406 21.2271C22.7609 20.8278 22.9975 20.2858 22.9975 19.72V10.0134V9.69445V9.67068L22.979 9.65567L22.7236 9.44767L12.5061 1.12767Z" fill="#4E5860" stroke="#4E5860" stroke-width="0.1"/>
</svg>
