<svg width="24" height="25" viewBox="0 0 24 25" fill="none" xmlns="http://www.w3.org/2000/svg">
<g id="ion:storefront-outline">
<path id="Vector" d="M21 21.0801V11.3301M3 11.3301V21.0801M1.5 21.8301H22.5M13.5 21.8301V14.7051C13.5 14.4067 13.6185 14.1206 13.8295 13.9096C14.0405 13.6986 14.3266 13.5801 14.625 13.5801H17.625C17.9234 13.5801 18.2095 13.6986 18.4205 13.9096C18.6315 14.1206 18.75 14.4067 18.75 14.7051V21.8301M17.9283 2.33008H6.07172C5.05031 2.33008 4.12781 2.89258 3.73125 3.75789L1.70156 8.18945C1.01812 9.68055 2.15297 11.3699 3.91359 11.4238H4.00734C5.47922 11.4238 6.67219 10.2435 6.67219 8.97555C6.67219 10.2412 7.86562 11.4238 9.3375 11.4238C10.8094 11.4238 12 10.3279 12 8.97555C12 10.2412 13.193 11.4238 14.6648 11.4238C16.1367 11.4238 17.3302 10.3279 17.3302 8.97555C17.3302 10.3279 18.5231 11.4238 19.995 11.4238H20.0864C21.847 11.369 22.9819 9.67961 22.2984 8.18945L20.2687 3.75789C19.8722 2.89258 18.9497 2.33008 17.9283 2.33008ZM6.375 13.5801H10.125C10.4234 13.5801 10.7095 13.6986 10.9205 13.9096C11.1315 14.1206 11.25 14.4067 11.25 14.7051V18.8301H5.25V14.7051C5.25 14.4067 5.36853 14.1206 5.5795 13.9096C5.79048 13.6986 6.07663 13.5801 6.375 13.5801Z" stroke="#0057A5" stroke-width="1.5" stroke-linecap="round" stroke-linejoin="round"/>
</g>
</svg>
