<svg width="24" height="25" viewBox="0 0 24 25" fill="none" xmlns="http://www.w3.org/2000/svg">
<g id="streamline:computer-pc-desktop-solid" clip-path="url(#clip0_569_605)">
<path id="Vector" fill-rule="evenodd" clip-rule="evenodd" d="M13.7143 3.50854C13.2596 3.50854 12.8236 3.68916 12.5021 4.01065C12.1806 4.33214 12 4.76817 12 5.22283V6.02683H12.8571C14.1074 6.02683 15.3065 6.52351 16.1906 7.40761C17.0747 8.29171 17.5714 9.49081 17.5714 10.7411V11.0085H24V5.22283C24 4.76817 23.8194 4.33214 23.4979 4.01065C23.1764 3.68916 22.7404 3.50854 22.2857 3.50854H13.7143ZM13.5274 23.8588C13.7069 23.3393 13.7586 22.7843 13.6783 22.2405C14.7693 22.0476 15.7574 21.4765 16.4693 20.6276C17.1813 19.7787 17.5714 18.7062 17.5714 17.5983V13.1514H24V22.3657C24 22.8203 23.8194 23.2564 23.4979 23.5779C23.1764 23.8994 22.7404 24.08 22.2857 24.08H14.5714C14.2117 24.0806 13.856 24.0052 13.5274 23.8588ZM21.7217 7.25769C21.7308 7.43555 21.7036 7.6134 21.6418 7.78043C21.58 7.94745 21.4849 8.10016 21.3622 8.22927C21.2396 8.35838 21.0919 8.46118 20.9283 8.53143C20.7646 8.60168 20.5884 8.63791 20.4103 8.63791C20.2322 8.63791 20.056 8.60168 19.8923 8.53143C19.7287 8.46118 19.581 8.35838 19.4583 8.22927C19.3357 8.10016 19.2405 7.94745 19.1787 7.78043C19.1169 7.6134 19.0898 7.43555 19.0989 7.25769C19.1161 6.92147 19.2617 6.6047 19.5058 6.37281C19.7498 6.14092 20.0736 6.01162 20.4103 6.01162C20.7469 6.01162 21.0707 6.14092 21.3148 6.37281C21.5588 6.6047 21.7045 6.92147 21.7217 7.25769ZM0 10.7428C0 10.0608 0.270918 9.40679 0.753154 8.92456C1.23539 8.44232 1.88944 8.1714 2.57143 8.1714H12.8571C13.5391 8.1714 14.1932 8.44232 14.6754 8.92456C15.1577 9.40679 15.4286 10.0608 15.4286 10.7428V17.6C15.4286 18.282 15.1577 18.936 14.6754 19.4182C14.1932 19.9005 13.5391 20.1714 12.8571 20.1714H9V21.4571H10.2857C10.6267 21.4571 10.9537 21.5926 11.1949 21.8337C11.436 22.0748 11.5714 22.4018 11.5714 22.7428C11.5714 23.0838 11.436 23.4109 11.1949 23.652C10.9537 23.8931 10.6267 24.0285 10.2857 24.0285H5.14286C4.80186 24.0285 4.47484 23.8931 4.23372 23.652C3.9926 23.4109 3.85714 23.0838 3.85714 22.7428C3.85714 22.4018 3.9926 22.0748 4.23372 21.8337C4.47484 21.5926 4.80186 21.4571 5.14286 21.4571H6.42857V20.1714H2.57143C1.88944 20.1714 1.23539 19.9005 0.753154 19.4182C0.270918 18.936 0 18.282 0 17.6L0 10.7428Z" fill="#0057A5"/>
</g>
<defs>
<clipPath id="clip0_569_605">
<rect width="24" height="24" fill="white" transform="translate(0 0.0800781)"/>
</clipPath>
</defs>
</svg>
