<svg width="24" height="25" viewBox="0 0 24 25" fill="none" xmlns="http://www.w3.org/2000/svg">
<path d="M4 20.0801C3.45 20.0801 2.979 19.8841 2.587 19.4921C2.195 19.1001 1.99934 18.6294 2 18.0801V6.08008C2 5.53008 2.196 5.05908 2.588 4.66708C2.98 4.27508 3.45067 4.07941 4 4.08008H10L12 6.08008H20C20.55 6.08008 21.021 6.27608 21.413 6.66808C21.805 7.06008 22.0007 7.53075 22 8.08008V18.0801C22 18.6301 21.804 19.1011 21.412 19.4931C21.02 19.8851 20.5493 20.0807 20 20.0801H4ZM4 18.0801H20V8.08008H11.175L9.175 6.08008H4V18.0801Z" fill="#4E5860"/>
</svg>
