<svg width="24" height="25" viewBox="0 0 24 25" fill="none" xmlns="http://www.w3.org/2000/svg">
<path d="M20 7.08008V21.0801C20 21.3453 19.8946 21.5996 19.7071 21.7872C19.5196 21.9747 19.2652 22.0801 19 22.0801H5C4.73478 22.0801 4.48043 21.9747 4.29289 21.7872C4.10536 21.5996 4 21.3453 4 21.0801V3.08008C4 2.81486 4.10536 2.56051 4.29289 2.37297C4.48043 2.18543 4.73478 2.08008 5 2.08008H15M20 7.08008H15V2.08008M20 7.08008L15 2.08008" stroke="#4E5860" stroke-width="2" stroke-linecap="round" stroke-linejoin="round"/>
<path d="M12 15.5801V14.0801C13.105 14.0801 14 13.0726 14 11.8301C14 10.5876 13.105 9.58008 12 9.58008C10.895 9.58008 10 10.5876 10 11.8301" stroke="#4E5860" stroke-width="2" stroke-linecap="round" stroke-linejoin="round"/>
<path fill-rule="evenodd" clip-rule="evenodd" d="M12 19.5801C12.3315 19.5801 12.6495 19.4484 12.8839 19.214C13.1183 18.9795 13.25 18.6616 13.25 18.3301C13.25 17.9986 13.1183 17.6806 12.8839 17.4462C12.6495 17.2118 12.3315 17.0801 12 17.0801C11.6685 17.0801 11.3505 17.2118 11.1161 17.4462C10.8817 17.6806 10.75 17.9986 10.75 18.3301C10.75 18.6616 10.8817 18.9795 11.1161 19.214C11.3505 19.4484 11.6685 19.5801 12 19.5801Z" fill="#4E5860"/>
</svg>
