<svg width="28" height="29" viewBox="0 0 28 29" fill="none" xmlns="http://www.w3.org/2000/svg">
<path d="M22.1667 20.3333V14.2666C21.5833 14.3833 21 14.4999 20.4167 14.4999H19.8333V21.4999H8.16667V13.3333C8.16667 10.0666 10.7333 7.49992 14 7.49992C14.1167 5.98325 14.8167 4.69992 15.75 3.64992C15.4 3.18325 14.7 2.83325 14 2.83325C12.7167 2.83325 11.6667 3.88325 11.6667 5.16659V5.51659C8.16667 6.56659 5.83333 9.71659 5.83333 13.3333V20.3333L3.5 22.6666V23.8333H24.5V22.6666L22.1667 20.3333ZM11.6667 24.9999C11.6667 26.2833 12.7167 27.3333 14 27.3333C15.2833 27.3333 16.3333 26.2833 16.3333 24.9999H11.6667ZM24.5 8.08325C24.5 10.2999 22.6333 12.1666 20.4167 12.1666C18.2 12.1666 16.3333 10.2999 16.3333 8.08325C16.3333 5.86659 18.2 3.99992 20.4167 3.99992C22.6333 3.99992 24.5 5.86659 24.5 8.08325Z" fill="#17202A"/>
</svg>
