<svg width="18" height="18" viewBox="0 0 18 18" fill="none" xmlns="http://www.w3.org/2000/svg">
<path d="M9.68421 15.5323C9.3775 15.6691 9.14999 15.7234 9.00297 15.727H8.9999H8.9629C8.81565 15.7169 8.59883 15.6609 8.31347 15.5336C8.01093 15.3986 7.66117 15.197 7.28129 14.9331C6.52174 14.4055 5.67116 13.6494 4.87496 12.7437C3.26844 10.9162 1.9624 8.57248 1.9624 6.35847C1.9624 4.30644 3.66153 2.54297 5.51465 2.54297C6.98417 2.54297 8.00884 3.55884 8.59138 4.37981L8.9993 4.9547L9.40702 4.37967C9.98811 3.56016 11.0128 2.54297 12.4829 2.54297C14.3375 2.54297 16.0359 4.30639 16.0359 6.35922C16.0359 8.57243 14.7297 10.9158 13.123 12.7429C12.3267 13.6485 11.4761 14.4045 10.7164 14.932C10.3365 15.1959 9.98675 15.3974 9.68421 15.5323Z" fill="#E91655" stroke="#E91655"/>
</svg>
