<svg width="18" height="18" viewBox="0 0 18 18" fill="none" xmlns="http://www.w3.org/2000/svg">
<path d="M4.5 14.625V4.21125C4.5 3.86625 4.61575 3.57825 4.84725 3.34725C5.07825 3.11575 5.36625 3 5.71125 3H12.2888C12.6337 3 12.9218 3.11575 13.1528 3.34725C13.3843 3.57825 13.5 3.86625 13.5 4.21125V14.625L9 12.6923L4.5 14.625ZM5.25 13.4625L9 11.85L12.75 13.4625V4.21125C12.75 4.09625 12.702 3.9905 12.606 3.894C12.5095 3.798 12.4037 3.75 12.2888 3.75H5.71125C5.59625 3.75 5.4905 3.798 5.394 3.894C5.298 3.9905 5.25 4.09625 5.25 4.21125V13.4625Z" fill="#17202A"/>
</svg>
