<svg width="132" height="50" viewBox="0 0 132 50" fill="none" xmlns="http://www.w3.org/2000/svg">
<g filter="url(#filter0_d_520_628)">
<path d="M20.209 19.2156L7.23502 4.02515H10.31L21.5722 17.2143L30.5717 4.02515H40.9498L16.4754 39.9001H6.09727L20.209 19.2156ZM24.4191 24.1459L25.7978 22.16L36.7678 6.35702H32.0451L23.1943 19.1106L21.8156 21.0965L10.3075 37.6759H15.0301L24.4191 24.1459Z" fill="#0057A5"/>
<path d="M38.8632 37.1844C38.3325 37.1844 37.8763 36.9968 37.4946 36.6214C37.1128 36.2397 36.9219 35.7802 36.9219 35.2431C36.9219 34.7125 37.1128 34.2595 37.4946 33.8842C37.8763 33.5024 38.3325 33.3116 38.8632 33.3116C39.3938 33.3116 39.85 33.5024 40.2318 33.8842C40.6136 34.2595 40.8045 34.7125 40.8045 35.2431C40.8045 35.599 40.7139 35.9258 40.5327 36.2235C40.358 36.5147 40.125 36.7476 39.8338 36.9223C39.5426 37.0971 39.2191 37.1844 38.8632 37.1844Z" fill="#E91655"/>
<path d="M51.6514 22.0909V24.4205H43.5077V22.0909H51.6514ZM45.6916 18.5189H48.5939V32.6224C48.5939 33.1854 48.678 33.6092 48.8462 33.8939C49.0145 34.1722 49.2313 34.3631 49.4966 34.4666C49.7683 34.5637 50.0628 34.6122 50.3799 34.6122C50.6128 34.6122 50.8166 34.596 50.9914 34.5637C51.1661 34.5313 51.302 34.5054 51.399 34.486L51.9232 36.8835C51.7549 36.9482 51.5155 37.0129 51.2049 37.0777C50.8943 37.1488 50.506 37.1877 50.0401 37.1941C49.2766 37.2071 48.5647 37.0712 47.9047 36.7865C47.2447 36.5017 46.7108 36.0617 46.3031 35.4664C45.8955 34.8711 45.6916 34.1237 45.6916 33.2242V18.5189ZM54.8618 37V22.0909H57.667V24.4593H57.8223C58.094 23.6569 58.5729 23.026 59.2588 22.5665C59.9512 22.1006 60.7342 21.8677 61.6078 21.8677C61.789 21.8677 62.0025 21.8741 62.2484 21.8871C62.5008 21.9 62.6981 21.9162 62.8405 21.9356V24.7116C62.724 24.6793 62.5169 24.6437 62.2193 24.6049C61.9216 24.5596 61.624 24.5369 61.3263 24.5369C60.6404 24.5369 60.0289 24.6825 59.4918 24.9737C58.9612 25.2584 58.5405 25.6564 58.2299 26.1676C57.9193 26.6723 57.764 27.2483 57.764 27.8954V37H54.8618ZM74.7964 30.817V22.0909H77.7083V37H74.8546V34.4181H74.6993C74.3564 35.214 73.8063 35.8773 73.0492 36.4079C72.2986 36.9321 71.3636 37.1941 70.2441 37.1941C69.2864 37.1941 68.4387 36.9838 67.701 36.5632C66.9698 36.1361 66.3939 35.5052 65.9732 34.6705C65.5591 33.8357 65.352 32.8036 65.352 31.5741V22.0909H68.2543V31.2247C68.2543 32.2406 68.5357 33.0495 69.0987 33.6513C69.6617 34.2531 70.3929 34.554 71.2924 34.554C71.8359 34.554 72.3763 34.4181 72.9134 34.1463C73.4569 33.8745 73.9066 33.4636 74.2625 32.9136C74.6249 32.3636 74.8029 31.6647 74.7964 30.817ZM81.6079 37V22.0909H84.3936V24.5175H84.5781C84.8887 23.6957 85.3966 23.0551 86.102 22.5956C86.8073 22.1297 87.6518 21.8968 88.6354 21.8968C89.6319 21.8968 90.4666 22.1297 91.1396 22.5956C91.8191 23.0616 92.3206 23.7022 92.6441 24.5175H92.7994C93.1553 23.7216 93.7215 23.0874 94.498 22.6151C95.2746 22.1362 96.1999 21.8968 97.2741 21.8968C98.6265 21.8968 99.7298 22.3206 100.584 23.1683C101.445 24.016 101.875 25.294 101.875 27.0024V37H98.9727V27.2741C98.9727 26.2647 98.6977 25.5335 98.1477 25.0805C97.5976 24.6275 96.9408 24.401 96.1773 24.401C95.2325 24.401 94.498 24.6922 93.9739 25.2746C93.4498 25.8505 93.1877 26.5915 93.1877 27.4974V37H90.2952V27.0897C90.2952 26.2809 90.0428 25.6305 89.5381 25.1387C89.0333 24.6469 88.3765 24.401 87.5677 24.401C87.0176 24.401 86.5096 24.5466 86.0437 24.8378C85.5843 25.1226 85.2122 25.5205 84.9275 26.0317C84.6492 26.5429 84.5101 27.135 84.5101 27.808V37H81.6079ZM105.765 37V22.0909H108.667V37H105.765ZM107.23 19.7905C106.726 19.7905 106.292 19.6222 105.93 19.2857C105.574 18.9428 105.396 18.5351 105.396 18.0627C105.396 17.5839 105.574 17.1762 105.93 16.8397C106.292 16.4968 106.726 16.3253 107.23 16.3253C107.735 16.3253 108.166 16.4968 108.521 16.8397C108.884 17.1762 109.065 17.5839 109.065 18.0627C109.065 18.5351 108.884 18.9428 108.521 19.2857C108.166 19.6222 107.735 19.7905 107.23 19.7905ZM118.852 37.3009C117.454 37.3009 116.234 36.9806 115.192 36.34C114.15 35.6993 113.341 34.8031 112.766 33.6513C112.19 32.4994 111.902 31.1535 111.902 29.6134C111.902 28.0668 112.19 26.7144 112.766 25.5561C113.341 24.3978 114.15 23.4983 115.192 22.8577C116.234 22.2171 117.454 21.8968 118.852 21.8968C120.249 21.8968 121.469 22.2171 122.511 22.8577C123.553 23.4983 124.362 24.3978 124.937 25.5561C125.513 26.7144 125.801 28.0668 125.801 29.6134C125.801 31.1535 125.513 32.4994 124.937 33.6513C124.362 34.8031 123.553 35.6993 122.511 36.34C121.469 36.9806 120.249 37.3009 118.852 37.3009ZM118.861 34.8646C119.767 34.8646 120.518 34.6252 121.113 34.1463C121.708 33.6675 122.148 33.0301 122.433 32.2341C122.724 31.4382 122.87 30.5614 122.87 29.6037C122.87 28.6525 122.724 27.7789 122.433 26.983C122.148 26.1806 121.708 25.5367 121.113 25.0514C120.518 24.5661 119.767 24.3234 118.861 24.3234C117.949 24.3234 117.192 24.5661 116.59 25.0514C115.995 25.5367 115.551 26.1806 115.26 26.983C114.975 27.7789 114.833 28.6525 114.833 29.6037C114.833 30.5614 114.975 31.4382 115.26 32.2341C115.551 33.0301 115.995 33.6675 116.59 34.1463C117.192 34.6252 117.949 34.8646 118.861 34.8646Z" fill="#0057A5"/>
</g>
<defs>
<filter id="filter0_d_520_628" x="0" y="-2" width="134" height="52" filterUnits="userSpaceOnUse" color-interpolation-filters="sRGB">
<feFlood flood-opacity="0" result="BackgroundImageFix"/>
<feColorMatrix in="SourceAlpha" type="matrix" values="0 0 0 0 0 0 0 0 0 0 0 0 0 0 0 0 0 0 127 0" result="hardAlpha"/>
<feOffset dx="2" dy="2"/>
<feGaussianBlur stdDeviation="2"/>
<feComposite in2="hardAlpha" operator="out"/>
<feColorMatrix type="matrix" values="0 0 0 0 0 0 0 0 0 0 0 0 0 0 0 0 0 0 0.08 0"/>
<feBlend mode="normal" in2="BackgroundImageFix" result="effect1_dropShadow_520_628"/>
<feBlend mode="normal" in="SourceGraphic" in2="effect1_dropShadow_520_628" result="shape"/>
</filter>
</defs>
</svg>
