<svg width="18" height="18" viewBox="0 0 18 18" fill="none" xmlns="http://www.w3.org/2000/svg">
<path d="M17.8277 11.7527C17.6087 11.5329 17.2524 11.5329 17.0327 11.7527L15.3677 13.4177V5.73768C15.3677 4.18668 14.1054 2.92518 12.5552 2.92518H8.16766C7.85716 2.92518 7.60516 3.17718 7.60516 3.48768C7.60516 3.79818 7.85716 4.05018 8.16766 4.05018H12.5552C13.4852 4.05018 14.2427 4.80768 14.2427 5.73768V13.4177L12.5777 11.7527C12.3579 11.5329 12.0017 11.5329 11.7827 11.7527C11.5637 11.9724 11.5622 12.3287 11.7827 12.5477L14.4077 15.1727C14.5164 15.2829 14.6604 15.3377 14.8052 15.3377C14.9499 15.3377 15.0924 15.2837 15.2027 15.1727L17.8277 12.5477C18.0482 12.3287 18.0482 11.9724 17.8277 11.7527ZM9.83266 14.2127H5.44516C4.51516 14.2127 3.75766 13.4552 3.75766 12.5252V4.84518L5.42266 6.51018C5.53366 6.62043 5.67766 6.67518 5.82166 6.67518C5.96566 6.67518 6.10966 6.62043 6.21916 6.51018C6.43891 6.29043 6.43891 5.93418 6.21916 5.71518L3.59416 3.09018C3.37441 2.86968 3.01816 2.86968 2.79916 3.09018L0.174164 5.71518C-0.0463359 5.93418 -0.0463359 6.29043 0.174164 6.51018C0.394664 6.72993 0.749414 6.72993 0.969164 6.51018L2.63416 4.84518V12.5252C2.63416 14.0762 3.89641 15.3377 5.44666 15.3377H9.83416C10.1447 15.3377 10.3967 15.0857 10.3967 14.7752C10.3967 14.4647 10.1439 14.2127 9.83416 14.2127H9.83266Z" fill="#1C2733"/>
</svg>
