<svg width="18" height="18" viewBox="0 0 18 18" fill="none" xmlns="http://www.w3.org/2000/svg">
<path d="M10.5343 1.68133L7.42328 1.67383H7.42178C4.14128 1.67383 1.57178 4.24408 1.57178 7.52533C1.57178 10.5988 3.96128 12.9298 7.17053 13.0528V15.9238C7.17053 16.0048 7.20353 16.1383 7.26053 16.2261C7.36703 16.3948 7.54853 16.4863 7.73453 16.4863C7.83803 16.4863 7.94228 16.4578 8.03603 16.3978C8.23403 16.2718 12.8908 13.2928 14.102 12.2683C15.5285 11.0608 16.382 9.29083 16.3843 7.53433V7.52158C16.3798 4.24633 13.8118 1.68133 10.5343 1.68058V1.68133ZM13.3745 11.4103C12.524 12.1303 9.72803 13.9641 8.29553 14.8926V12.5023C8.29553 12.1918 8.04428 11.9398 7.73303 11.9398H7.43603C4.69103 11.9398 2.69753 10.0828 2.69753 7.52533C2.69753 4.87483 4.77353 2.79883 7.42253 2.79883L10.5328 2.80633H10.5343C13.1833 2.80633 15.2593 4.88083 15.2608 7.52833C15.2585 8.96083 14.5543 10.4113 13.3753 11.4103H13.3745Z" fill="#1C2733"/>
</svg>
